<?xml version="1.0" encoding="utf-8"?>
<!--
  - AUI Framework - Declarative UI toolkit for modern C++17
  - Copyright (C) 2020-2023 Alex2772
  -
  - This library is free software; you can redistribute it and/or
  - modify it under the terms of the GNU Lesser General Public
  - License as published by the Free Software Foundation; either
  - version 2 of the License, or (at your option) any later version.
  -
  - This library is distributed in the hope that it will be useful,
  - but WITHOUT ANY WARRANTY; without even the implied warranty of
  - MERCHANTABILITY or FITNESS FOR A PARTICULAR PURPOSE.	 See the GNU
  - Lesser General Public License for more details.
  -
  - You should have received a copy of the GNU Lesser General Public
  - License along with this library. If not, see <http://www.gnu.org/licenses/>.
  -->

<!-- Generator: Adobe Illustrator 16.0.0, SVG Export Plug-In . SVG Version: 6.00 Build 0)  -->
<!DOCTYPE svg PUBLIC "-//W3C//DTD SVG 1.1//EN" "http://www.w3.org/Graphics/SVG/1.1/DTD/svg11.dtd">
<svg version="1.1" id="Layer_1" xmlns="http://www.w3.org/2000/svg" xmlns:xlink="http://www.w3.org/1999/xlink" x="0px" y="0px"
	 width="256px" height="256px" viewBox="0 0 256 256" enable-background="new 0 0 256 256" xml:space="preserve">
<polyline points="14.001,61.469 14.001,198.082 125.667,141.363 125.667,4.75 "/>
<polyline fill="none" stroke="#000000" stroke-miterlimit="10" points="14.001,62.264 125.667,5.598 237.334,62.264 "/>
<linearGradient id="SVGID_1_" gradientUnits="userSpaceOnUse" x1="147.332" y1="13.8965" x2="103.1122" y2="104.5606" gradientTransform="matrix(1 0 0 -1 0 256.9238)">
	<stop  offset="0" style="stop-color:#305491"/>
	<stop  offset="1" style="stop-color:#0071AF"/>
</linearGradient>
<polygon fill="url(#SVGID_1_)" points="14.001,198.082 125.667,141.363 237.334,199.131 125.667,252.174 "/>
<linearGradient id="SVGID_2_" gradientUnits="userSpaceOnUse" x1="263.9697" y1="93.1396" x2="99.4414" y2="217.1206" gradientTransform="matrix(1 0 0 -1 0 256.9238)">
	<stop  offset="0" style="stop-color:#0076B7"/>
	<stop  offset="1" style="stop-color:#0084AC"/>
</linearGradient>
<polyline fill="url(#SVGID_2_)" points="237.334,61.918 237.334,199.131 125.667,141.363 125.667,5.002 "/>
<g>
	<path fill="#FFFFFF" d="M45.308,98.091l-2.36-7.461l-11.189,5.434l-2.507,9.823l-10.408,5.053l12.894-49.936l13.555-6.582
		l13.098,37.317L45.308,98.091z M33.939,85.47l6.758-3.283l-3.379-11.029L33.939,85.47z"/>
	<path fill="#FFFFFF" d="M95.16,30.21v28.925c0,5.482-1.556,10.18-4.666,14.09c-3.111,3.909-7.165,7.078-12.163,9.504
		c-5.262,2.555-9.49,3.456-12.682,2.703c-3.193-0.754-4.789-3.733-4.789-8.938V46.865l13.034-6.33v28.062
		c0,2.092,0.422,3.41,1.266,3.96c0.844,0.551,2.192,0.376,4.044-0.523c1.545-0.75,2.811-1.71,3.798-2.883
		c0.987-1.173,1.577-2.242,1.77-3.212c0.194-0.968,0.291-2.721,0.291-5.26V35.112L95.16,30.21z"/>
	<path fill="#FFFFFF" d="M114.833,20.659v43.675l-12.82,6.226V26.883L114.833,20.659z"/>
</g>
<linearGradient id="SVGID_3_" gradientUnits="userSpaceOnUse" x1="23.3418" y1="204.1484" x2="114.7414" y2="63.4053">
	<stop  offset="0" style="stop-color:#3889B4"/>
	<stop  offset="1" style="stop-color:#1390CF"/>
</linearGradient>
<polyline fill="url(#SVGID_3_)" points="14.001,123.75 125.667,70.5 125.667,141.363 14.001,198.082 "/>
</svg>
