<?xml version="1.0" encoding="UTF-8" standalone="no"?>
<!-- Created with Inkscape (http://www.inkscape.org/) -->

<svg
   width="30"
   height="29.999998"
   viewBox="0 0 7.9374995 7.9374997"
   version="1.1"
   id="svg1"
   xml:space="preserve"
   xmlns="http://www.w3.org/2000/svg"
   xmlns:svg="http://www.w3.org/2000/svg"><defs
     id="defs1" /><g
     id="layer1"><path
       id="rect2"
       style="opacity:1;fill:#ffffff;fill-opacity:1;stroke-width:0.875001"
       d="m 3.96875,0 h 0 A 0.52916662,0.52916662 45 0 1 4.4979166,0.52916662 V 2.1166664 A 0.5291666,0.5291666 135 0 1 3.96875,2.645833 l -2e-7,0 A 0.52916654,0.52916654 45 0 1 3.4395833,2.1166665 V 0.52916667 A 0.52916667,0.52916667 135 0 1 3.96875,0 Z" /><path
       id="rect2-3"
       style="opacity:0.15;fill:#ffffff;fill-opacity:1;stroke-width:0.875001"
       d="m 3.96875,0 h 0 A 0.52916662,0.52916662 45 0 1 4.4979166,0.52916662 V 2.1166664 A 0.5291666,0.5291666 135 0 1 3.96875,2.645833 l -2e-7,0 A 0.52916654,0.52916654 45 0 1 3.4395833,2.1166665 V 0.52916667 A 0.52916667,0.52916667 135 0 1 3.96875,0 Z"
       transform="rotate(45,3.9687499,3.9687497)" /><path
       id="rect2-3-1"
       style="opacity:0.27;fill:#ffffff;fill-opacity:1;stroke-width:0.875001"
       d="m 3.96875,0 h 0 A 0.52916662,0.52916662 45 0 1 4.4979166,0.52916662 V 2.1166664 A 0.5291666,0.5291666 135 0 1 3.96875,2.645833 l -2e-7,0 A 0.52916654,0.52916654 45 0 1 3.4395833,2.1166665 V 0.52916667 A 0.52916667,0.52916667 135 0 1 3.96875,0 Z"
       transform="rotate(90,3.9687499,3.9687497)" /><path
       id="rect2-3-1-5"
       style="opacity:0.39;fill:#ffffff;fill-opacity:1;stroke-width:0.875001"
       d="m 3.96875,0 h 0 A 0.52916662,0.52916662 45 0 1 4.4979166,0.52916662 V 2.1166664 A 0.5291666,0.5291666 135 0 1 3.96875,2.645833 l -2e-7,0 A 0.52916654,0.52916654 45 0 1 3.4395833,2.1166665 V 0.52916667 A 0.52916667,0.52916667 135 0 1 3.96875,0 Z"
       transform="rotate(135,3.9687501,3.9687497)" /><path
       id="rect2-1"
       style="opacity:0.51;fill:#ffffff;fill-opacity:1;stroke-width:0.875001"
       d="m 3.96875,0 h 0 A 0.52916662,0.52916662 45 0 1 4.4979166,0.52916662 V 2.1166664 A 0.5291666,0.5291666 135 0 1 3.96875,2.645833 l -2e-7,0 A 0.52916654,0.52916654 45 0 1 3.4395833,2.1166665 V 0.52916667 A 0.52916667,0.52916667 135 0 1 3.96875,0 Z"
       transform="rotate(180,3.96875,3.9687497)" /><path
       id="rect2-3-2"
       style="opacity:0.63;fill:#ffffff;fill-opacity:1;stroke-width:0.875001"
       d="m 3.96875,0 h 0 A 0.52916662,0.52916662 45 0 1 4.4979166,0.52916662 V 2.1166664 A 0.5291666,0.5291666 135 0 1 3.96875,2.645833 l -2e-7,0 A 0.52916654,0.52916654 45 0 1 3.4395833,2.1166665 V 0.52916667 A 0.52916667,0.52916667 135 0 1 3.96875,0 Z"
       transform="rotate(-135,3.9687499,3.9687497)" /><path
       id="rect2-3-1-9"
       style="opacity:0.75;fill:#ffffff;fill-opacity:1;stroke-width:0.875001"
       d="m 3.96875,0 h 0 A 0.52916662,0.52916662 45 0 1 4.4979166,0.52916662 V 2.1166664 A 0.5291666,0.5291666 135 0 1 3.96875,2.645833 l -2e-7,0 A 0.52916654,0.52916654 45 0 1 3.4395833,2.1166665 V 0.52916667 A 0.52916667,0.52916667 135 0 1 3.96875,0 Z"
       transform="rotate(-90,3.9687499,3.9687498)" /><path
       id="rect2-3-1-5-3"
       style="opacity:0.87;fill:#ffffff;fill-opacity:1;stroke-width:0.875001"
       d="m 3.96875,0 h 0 A 0.52916662,0.52916662 45 0 1 4.4979166,0.52916662 V 2.1166664 A 0.5291666,0.5291666 135 0 1 3.96875,2.645833 l -2e-7,0 A 0.52916654,0.52916654 45 0 1 3.4395833,2.1166665 V 0.52916667 A 0.52916667,0.52916667 135 0 1 3.96875,0 Z"
       transform="rotate(-45,3.9687499,3.9687503)" /></g></svg>
