<?xml version="1.0" encoding="iso-8859-1"?>
<svg xmlns="http://www.w3.org/2000/svg" viewBox="6 6 36 36">
  <path style="fill:#ECEFF1;" d="M16,42h16c5.523,0,10-4.477,10-10V16c0-5.523-4.477-10-10-10H16C10.477,6,6,10.477,6,16v16C6,37.523,10.477,42,16,42z"/>
  <circle style="fill:#FFC107;" cx="12.783" cy="18.736" r="0.762"/>
  <g>
    <path style="fill:#FF5722;" d="M15.982,21.81l1.444-0.61c0.68-1.22,1.835-1.927,3.332-1.927c0.34,0,0.659,0.043,0.962,0.113l1.372-0.579c-0.676-0.333-1.451-0.526-2.334-0.526C18.368,18.281,16.663,19.594,15.982,21.81z"/>
    <polygon style="fill:#FF5722;" points="13.297,22.944 13.297,21.375 12.273,21.375 12.273,23.377"/>
  </g>
  <g>
    <polygon style="fill:#F44336;" points="13.297,25.733 13.297,22.944 12.273,23.377 12.273,26.165"/>
    <path style="fill:#F44336;" d="M16.742,24.148c0-1.169,0.246-2.163,0.684-2.948l-1.444,0.61c-0.214,0.696-0.333,1.476-0.333,2.338c0,0.201,0.028,0.382,0.04,0.574l1.062-0.449C16.75,24.23,16.742,24.192,16.742,24.148z"/>
    <path style="fill:#F44336;" d="M30.421,18.5c-0.279,0.086-0.537,0.195-0.774,0.327L30.421,18.5z"/>
    <path style="fill:#F44336;" d="M23.092,18.807l-1.372,0.579c1.027,0.237,1.828,0.863,2.35,1.796l1.022-0.432C24.624,19.878,23.941,19.226,23.092,18.807z"/>
  </g>
  <g>
    <polygon style="fill:#E91E63;" points="13.297,28.521 13.297,25.733 12.273,26.165 12.273,28.953"/>
    <path style="fill:#E91E63;" d="M30.421,18.5l-0.774,0.327c-0.983,0.547-1.577,1.464-1.577,2.58c0,0.302,0.046,0.571,0.117,0.825l1.032-0.436c-0.034-0.132-0.056-0.27-0.056-0.42c0-1.227,1.117-2.117,2.734-2.117c0.796,0,1.467,0.213,1.958,0.579l1.048-0.443c-0.694-0.684-1.735-1.113-2.974-1.113C31.381,18.281,30.876,18.36,30.421,18.5z"/>
    <path style="fill:#E91E63;" d="M16.75,24.274l-1.062,0.449c0.059,0.959,0.26,1.811,0.597,2.536l1.004-0.424C16.954,26.121,16.766,25.26,16.75,24.274z"/>
    <path style="fill:#E91E63;" d="M25.092,20.751l-1.022,0.432c0.381,0.682,0.603,1.532,0.658,2.51l1.061-0.448C25.695,22.297,25.467,21.452,25.092,20.751z"/>
  </g>
  <g>
    <path style="fill:#9C27B0;" d="M25.609,26.108c0.146-0.602,0.242-1.247,0.242-1.96c0-0.316-0.033-0.609-0.063-0.904l-1.061,0.448c0.009,0.153,0.03,0.296,0.03,0.456c0,0.968-0.177,1.809-0.481,2.523L25.609,26.108z"/>
    <path style="fill:#9C27B0;" d="M17.29,26.834l-1.004,0.424c0.408,0.879,1.008,1.568,1.777,2.038l1.258-0.531C18.42,28.427,17.727,27.764,17.29,26.834z"/>
    <polygon style="fill:#9C27B0;" points="13.297,28.521 12.273,28.953 12.273,29.789 13.297,29.789"/>
    <path style="fill:#9C27B0;" d="M29.22,21.795l-1.032,0.436c0.245,0.866,0.915,1.471,2.129,1.889l1.6-0.676l-0.338-0.085C30.122,22.995,29.406,22.527,29.22,21.795z"/>
    <path style="fill:#9C27B0;" d="M34.719,21.273h1.078c-0.05-0.731-0.379-1.373-0.893-1.879l-1.048,0.443C34.328,20.189,34.635,20.684,34.719,21.273z"/>
  </g>
  <g>
    <path style="fill:#3F51B5;" d="M25.609,26.108l-1.333,0.563c-0.629,1.476-1.85,2.36-3.519,2.36c-0.528,0-1.001-0.103-1.437-0.267l-1.258,0.531c0.752,0.459,1.648,0.728,2.695,0.728C23.3,30.023,25.019,28.541,25.609,26.108z"/>
    <path style="fill:#3F51B5;" d="M28.828,26.859H27.75c0.026,0.368,0.127,0.705,0.264,1.021l0.989-0.418C28.919,27.273,28.853,27.074,28.828,26.859z"/>
    <path style="fill:#3F51B5;" d="M32.695,23.641l-0.779-0.196l-1.6,0.676c0.234,0.081,0.487,0.156,0.762,0.224l1.289,0.328c0.714,0.176,1.257,0.399,1.659,0.669l1.205-0.509C34.703,24.318,33.878,23.934,32.695,23.641z"/>
  </g>
  <g>
    <path style="fill:#03A9F4;" d="M29.003,27.463l-0.989,0.418c0.377,0.87,1.139,1.531,2.166,1.873l1.692-0.714C30.493,29.007,29.415,28.396,29.003,27.463z"/>
    <path style="fill:#03A9F4;" d="M35.914,27.333c0.035-0.193,0.063-0.39,0.063-0.598c0-0.784-0.234-1.404-0.745-1.902l-1.205,0.509c0.579,0.39,0.856,0.883,0.856,1.51c0,0.393-0.131,0.75-0.348,1.063L35.914,27.333z"/>
  </g>
  <path style="fill:#009688;" d="M35.914,27.333l-1.379,0.583c-0.472,0.682-1.394,1.132-2.55,1.132c-0.039,0-0.074-0.006-0.112-0.007l-1.692,0.714c0.514,0.171,1.086,0.269,1.71,0.269C34.098,30.023,35.615,28.964,35.914,27.333z"/>
</svg>
